<mxfile host="65bd71144e">
    <diagram id="SqCCv0vcqo0cbXl0C4D5" name="ページ1">
        <mxGraphModel dx="1833" dy="1001" grid="1" gridSize="10" guides="1" tooltips="1" connect="1" arrows="1" fold="1" page="1" pageScale="1" pageWidth="1600" pageHeight="900" math="0" shadow="0">
            <root>
                <mxCell id="0"/>
                <mxCell id="1" parent="0"/>
            </root>
        </mxGraphModel>
    </diagram>
</mxfile>